<?xml version="1.0" encoding="utf-8"?>
<svg xmlns="http://www.w3.org/2000/svg" width="125" height="24" viewBox="0 0 125 24" fill="none">
<path fill-rule="evenodd" clip-rule="evenodd" d="M5.92912 3.02167L10.2783 14.1487L14.602 3.02222C14.6463 2.90822 14.756 2.83313 14.8783 2.83313H18.5543C18.718 2.83313 18.8507 2.96586 18.8507 3.1296V21.2164C18.8507 21.3801 18.718 21.5128 18.5543 21.5128H15.787C15.6232 21.5128 15.4905 21.3801 15.4905 21.2164V8.86162C14.4292 11.4449 13.7007 13.2445 13.305 14.2604C12.9312 15.2201 12.3686 16.6243 11.6171 18.473C11.5717 18.5848 11.4632 18.6579 11.3426 18.6579H9.18415C9.06128 18.6579 8.95114 18.5821 8.90725 18.4674L5.19538 8.76255L5.25829 20.9328C5.2597 21.2057 5.03962 21.4281 4.76673 21.4295C4.76617 21.4295 4.76561 21.4295 4.76505 21.4295L0.317622 21.4374C0.154842 21.4377 0.0222748 21.3067 0.0206402 21.1439L1.5265e-05 19.0902C-0.00162899 18.9264 0.129766 18.7924 0.293494 18.7907C0.294447 18.7907 0.295399 18.7907 0.296351 18.7907L1.95189 18.79V5.59328H0.377019C0.213579 5.59328 0.0809672 5.461 0.0805488 5.29756L0.0750009 3.13036C0.0745817 2.96662 0.206976 2.83355 0.370712 2.83313C0.370965 2.83313 0.371218 2.83313 0.371471 2.83313H5.65299C5.77508 2.83313 5.88468 2.90797 5.92912 3.02167Z" fill="#19191D"/>
<path fill-rule="evenodd" clip-rule="evenodd" d="M42.3453 10.1462C39.3086 10.3805 39.0212 14.1396 39.5029 16.4671C40.0559 19.1384 42.9308 20.1679 44.7255 17.9617C45.6066 16.8785 45.4984 13.899 45.3687 12.5285C45.2202 10.9598 43.8722 10.0283 42.3453 10.1462ZM48.4401 21.4037L46.0522 21.4547C45.8958 21.458 45.7637 21.3393 45.7505 21.1834C45.7051 20.6482 45.677 20.2825 45.6662 20.0862C45.6621 20.0118 45.6942 20.0066 45.5904 20.0118C45.4298 20.0199 45.0811 20.4044 44.9193 20.5274C42.6727 22.2352 39.9717 22.389 37.8086 20.4344C35.4857 18.3355 35.3265 13.5031 36.5156 10.7895C37.8049 7.8475 41.2771 6.38903 44.3283 8.183C44.6303 8.3909 44.8461 8.56159 44.9758 8.69506C45.1055 8.82853 45.2366 8.9778 45.3691 9.14288L45.4164 2.29442C45.4176 2.13149 45.55 2 45.7129 2H48.4747C48.6385 2 48.7712 2.13273 48.7712 2.29647C48.7712 2.29669 48.7712 2.2969 48.7712 2.29712L48.7302 21.1079C48.7299 21.2689 48.6011 21.4002 48.4401 21.4037Z" fill="#19191D"/>
<path fill-rule="evenodd" clip-rule="evenodd" d="M60.1394 10.6049C58.2533 9.08295 55.4972 10.0655 54.7695 12.3421C54.7008 12.557 54.5045 13.059 54.8293 13.0985C56.1748 13.2625 60.4668 13.0687 61.0825 13.0469C61.0568 12.1225 60.8941 11.214 60.1394 10.6049ZM54.5597 15.2701C54.6451 16.1105 54.7173 17.0304 55.1444 17.7741C55.9127 19.1116 57.2739 19.6009 58.7722 19.3589C59.9489 19.1689 60.5983 18.4251 61.1667 17.4436C61.9157 17.4593 62.6836 17.5045 63.4289 17.5931C64.0678 17.669 64.2473 17.573 64.0707 18.2833C63.0441 22.4103 56.7736 22.8692 53.7538 20.7952C50.4602 18.5332 50.3004 12.6237 52.6834 9.6631C55.1093 6.64902 61.7707 6.50336 63.7096 10.0983C64.3291 11.2468 64.5982 13.1109 64.491 14.4048C64.4759 14.5865 64.4128 15.0536 64.2332 15.1352L54.5597 15.2701Z" fill="#19191D"/>
<path fill-rule="evenodd" clip-rule="evenodd" d="M27.0255 10.1441C24.1728 10.5027 23.8823 14.4293 24.4334 16.6144C25.2889 20.0063 29.7296 20.0629 30.6409 16.6748C31.3814 13.9218 30.7935 9.67048 27.0255 10.1441ZM32.7899 9.51785C34.7731 11.8015 34.7825 16.4652 33.2549 18.9923C31.0692 22.608 24.9795 22.8878 22.3449 19.6417C20.4573 17.3161 20.2578 13.1292 21.6926 10.5429C23.7748 6.78997 30.0358 6.3463 32.7899 9.51785Z" fill="#19191D"/>
<path fill-rule="evenodd" clip-rule="evenodd" d="M79.1229 18.9227L79.1632 21.131C79.1662 21.2947 79.0359 21.4298 78.8722 21.4328C78.8704 21.4328 78.8686 21.4329 78.8668 21.4329H66.7121C66.5484 21.4329 66.4156 21.3001 66.4156 21.1364V18.9483C66.4156 18.7845 66.5484 18.6518 66.7121 18.6518H71.4096V4.84194L67.1566 4.79817C66.9941 4.79649 66.8632 4.66426 66.8632 4.50171V2.32406C66.8632 2.16032 66.996 2.02759 67.1597 2.02759H74.4729C74.6366 2.02759 74.7694 2.16032 74.7694 2.32406V18.6518L78.825 18.6317C78.9872 18.6309 79.12 18.7606 79.1229 18.9227Z" fill="#19191D"/>
<path fill-rule="evenodd" clip-rule="evenodd" d="M93.7891 18.9376L93.8294 21.1459C93.8324 21.3096 93.7021 21.4447 93.5384 21.4477C93.5366 21.4477 93.5348 21.4477 93.533 21.4477H81.3783C81.2146 21.4477 81.0818 21.315 81.0818 21.1513V18.9632C81.0818 18.7994 81.2146 18.6667 81.3783 18.6667H86.0758V4.85683L81.8228 4.81306C81.6603 4.81138 81.5294 4.67915 81.5294 4.5166V2.33895C81.5294 2.17522 81.6622 2.04248 81.8259 2.04248H89.1391C89.3028 2.04248 89.4356 2.17522 89.4356 2.33895V18.6667L93.4912 18.6466C93.6534 18.6458 93.7862 18.7754 93.7891 18.9376Z" fill="#19191D"/>
<path fill-rule="evenodd" clip-rule="evenodd" d="M107.97 18.9375L108.011 21.1458C108.014 21.3095 107.883 21.4446 107.72 21.4476C107.718 21.4476 107.716 21.4477 107.714 21.4477H95.5595C95.3958 21.4477 95.263 21.3149 95.263 21.1512V18.9631C95.263 18.7993 95.3958 18.6666 95.5595 18.6666H100.257V10.3415L96.004 10.2977C95.8415 10.296 95.7106 10.1638 95.7106 10.0012V7.82357C95.7106 7.65983 95.8433 7.5271 96.0071 7.5271H103.32C103.484 7.5271 103.617 7.65983 103.617 7.82357V18.6666L107.672 18.6465C107.835 18.6457 107.967 18.7753 107.97 18.9375Z" fill="#19191D"/>
<path fill-rule="evenodd" clip-rule="evenodd" d="M113.067 7.72485C113.291 7.75816 113.402 8.19333 113.528 8.40041C114.145 9.41899 115.231 10.9497 115.986 11.8713C116.009 11.8988 116.676 12.7178 117.988 14.3284C115.269 17.9193 113.554 20.2554 112.843 21.3368C112.508 21.5407 112.071 21.5748 111.699 21.5939C111.011 21.6294 110.139 21.5868 109.46 21.5108C108.962 21.455 108.986 21.0987 109.168 20.725C110.829 18.5654 112.692 16.556 114.326 14.3744C113.564 13.6627 112.971 12.7653 112.298 11.9643C111.966 11.5698 110.764 10.0769 110.376 9.97117C110.07 9.88796 109.61 10.022 109.508 9.65379C109.495 9.60364 109.435 9.30781 109.435 9.28133V7.72485H113.067Z" fill="#605AFF"/>
<path fill-rule="evenodd" clip-rule="evenodd" d="M117.083 11.1664C118.315 9.74372 119.005 8.62227 119.709 7.7123C119.733 7.68384 119.808 7.62598 119.834 7.62598H123.392C123.503 7.62598 123.47 8.22435 123.466 8.34195C123.458 8.55077 123.433 8.86839 123.41 9.07725C123.398 9.18695 123.304 9.8126 123.26 9.84165C122.858 9.94586 122.249 9.85415 121.909 10.0963C121.828 10.1545 121.041 11.2373 118.996 13.4343L117.083 11.1664Z" fill="#19191D"/>
<path fill-rule="evenodd" clip-rule="evenodd" d="M117.083 17.4165C118.677 19.0662 119.565 20.37 120.321 21.3369C120.657 21.5407 121.093 21.5748 121.465 21.594C122.153 21.6294 123.026 21.5869 123.705 21.5108C124.202 21.455 124.178 21.0987 123.996 20.7251C122.889 19.2853 121.395 17.761 118.94 15.3096L117.083 17.4165Z" fill="#19191D"/>
<path fill-rule="evenodd" clip-rule="evenodd" d="M103.621 2.32866L103.581 5.09573C103.578 5.25775 103.446 5.38784 103.284 5.38784H99.8212C99.6575 5.38784 99.5247 5.2551 99.5247 5.09137V2.3243C99.5247 2.16057 99.6575 2.02783 99.8212 2.02783H103.325C103.489 2.02783 103.622 2.16057 103.622 2.3243C103.622 2.32576 103.622 2.32721 103.621 2.32866Z" fill="#19191D"/>
</svg>